<svg width="50" height="50" viewBox="0 0 50 50" fill="none" xmlns="http://www.w3.org/2000/svg">
<g id="Shield">
<path id="Vector" d="M25.3417 49.6172C19.0647 49.6172 12.7928 47.2298 8.01301 42.45C-1.54145 32.8956 -1.54145 17.3522 8.01301 7.79779C12.6436 3.16719 18.7971 0.620361 25.3417 0.620361C31.8863 0.620361 38.0398 3.16719 42.6704 7.79779C52.2249 17.3522 52.2249 32.8956 42.6704 42.45C37.8958 47.2247 31.6187 49.6172 25.3417 49.6172ZM9.29928 41.1638C18.1437 50.0082 32.5346 50.0082 41.379 41.1638C50.2234 32.3193 50.2234 17.9285 41.379 9.08406C37.0931 4.79819 31.3975 2.44175 25.3366 2.44175C19.2756 2.44175 13.58 4.80334 9.29414 9.08406C0.449703 17.9285 0.449703 32.3193 9.29414 41.1638H9.29928Z" fill="#9DADF2"/>
<g id="Group">
<path id="Vector_2" d="M25.0175 34.2952C25.105 34.5061 25.3108 34.6296 25.5269 34.6296C25.5989 34.6296 25.671 34.6142 25.743 34.5884C27.4717 33.863 29.0461 32.7413 30.2912 31.3419C30.4919 31.1155 30.4713 30.7656 30.245 30.565C30.0186 30.3643 29.6687 30.3849 29.468 30.6113C28.331 31.8924 26.8955 32.9163 25.3159 33.5748C25.0381 33.6932 24.9043 34.0173 25.0227 34.2952H25.0175Z" fill="#9DADF2"/>
<path id="Vector_3" d="M34.6795 16.6523L25.5418 12.9993C25.408 12.9478 25.2639 12.9478 25.1302 12.9993L15.9924 16.6523C15.7815 16.7346 15.6477 16.9353 15.6477 17.1617V23.7062C15.658 29.7466 19.4757 35.2055 25.1456 37.2842C25.2073 37.3048 25.2691 37.315 25.3359 37.315C25.4028 37.315 25.4646 37.3048 25.5263 37.2842C31.1962 35.2004 35.0139 29.7466 35.0242 23.7062V17.1617C35.0242 16.9353 34.8904 16.7346 34.6795 16.6523ZM33.9231 23.7062C33.9128 29.2012 30.4656 34.2074 25.3411 36.178C20.2166 34.2074 16.7642 29.2012 16.7539 23.7062V17.5373L25.3411 14.1055L33.9231 17.5373V23.7062Z" fill="#9DADF2"/>
<path id="Vector_4" d="M21.5236 17.5117C21.3898 17.4551 21.2406 17.4551 21.1017 17.5117L18.9253 18.3812C18.7144 18.4635 18.5806 18.6642 18.5806 18.8906V21.211C18.5806 21.5146 18.8275 21.7615 19.1311 21.7615C19.4347 21.7615 19.6816 21.5146 19.6816 21.211V19.2662L21.5081 18.5356C21.647 18.479 21.75 18.376 21.8117 18.2371C21.8683 18.1034 21.8683 17.9541 21.8117 17.8152C21.7551 17.6763 21.6522 17.5734 21.5184 17.5117H21.5236Z" fill="#9DADF2"/>
<path id="Vector_5" d="M39.2533 11.2088C35.5385 7.4889 30.5941 5.44629 25.3358 5.44629C20.0775 5.44629 15.1382 7.49405 11.4183 11.2088C3.74696 18.8802 3.74696 31.3673 11.4183 39.0438C15.2566 42.882 20.2936 44.796 25.3358 44.796C30.378 44.796 35.4151 42.8769 39.2533 39.0438C46.9246 31.3725 46.9246 18.8853 39.2533 11.2088ZM36.5315 23.7063C36.547 30.6882 32.0862 36.7954 25.4336 38.91C25.3718 38.9306 25.3049 38.9306 25.238 38.91C18.5854 36.7954 14.1246 30.6882 14.1401 23.7063V15.9834C14.1401 15.8548 14.2172 15.7365 14.3407 15.6851L25.2175 11.3374C25.2535 11.322 25.2946 11.3169 25.3358 11.3169C25.377 11.3169 25.4181 11.322 25.4541 11.3374L36.3309 15.6902C36.4544 15.7365 36.5315 15.8548 36.5315 15.9886V23.7114V23.7063Z" fill="#9DADF2"/>
</g>
</g>
</svg>
