<svg width="50" height="50" viewBox="0 0 50 50" fill="none" xmlns="http://www.w3.org/2000/svg">
<g id="M">
<path id="Vector" d="M24.8005 49.6598C11.2946 49.6598 0.309814 38.6699 0.309814 25.1692C0.309814 11.6684 11.2998 0.678467 24.8005 0.678467C38.3013 0.678467 49.2912 11.6684 49.2912 25.1692C49.2912 38.6699 38.3013 49.6598 24.8005 49.6598ZM24.8005 2.30946C12.195 2.30946 1.94083 12.5637 1.94083 25.1692C1.94083 37.7747 12.195 48.0288 24.8005 48.0288C37.406 48.0288 47.6602 37.7747 47.6602 25.1692C47.6602 12.5637 37.406 2.30946 24.8005 2.30946Z" fill="white"/>
<g id="Group">
<path id="Vector_2" d="M40.7809 7.69302L33.199 15.2749L34.6906 16.7665L42.2725 9.18465L40.7809 7.69302Z" fill="white"/>
<path id="Vector_3" d="M14.6827 33.7922L7.10083 41.374L8.59246 42.8657L16.1743 35.2838L14.6827 33.7922Z" fill="white"/>
<path id="Vector_4" d="M34.9203 33.7908L33.4287 35.2825L41.0106 42.8643L42.5022 41.3727L34.9203 33.7908Z" fill="white"/>
<path id="Vector_5" d="M8.59832 7.46345L7.10669 8.95508L14.6849 16.5333L16.1766 15.0417L8.59832 7.46345Z" fill="white"/>
</g>
<g id="Group_2">
<path id="Vector_6" d="M30.7797 25.8276C31.2737 25.3336 31.2737 24.5361 30.7797 24.0474L29.7301 23.0029C29.2362 22.509 28.4387 22.509 27.9499 23.0029L27.384 23.5689L26.7306 22.9154C26.2366 22.4215 25.4391 22.4215 24.9503 22.9154L24.3844 23.4865L23.731 22.828C23.237 22.334 22.4395 22.334 21.9507 22.828L18.4778 26.3009C18.4521 26.3266 18.4521 26.3678 18.4778 26.3987C18.9408 26.8617 19.6972 26.8617 20.1654 26.3987L22.4035 24.1605C22.6453 23.9187 23.0364 23.9187 23.2782 24.1605L23.4428 24.3252C23.4737 24.3561 23.4737 24.4024 23.4428 24.4332L21.5752 26.3009C21.5494 26.3266 21.5494 26.3678 21.5752 26.3987C22.0382 26.8617 22.7945 26.8617 23.2627 26.3987L25.4083 24.2532C25.6501 24.0114 26.0411 24.0114 26.2829 24.2532L26.4475 24.4178C26.4733 24.4435 26.4733 24.4847 26.4475 24.5156L24.6468 26.3163C24.621 26.3421 24.621 26.3832 24.6468 26.4141C25.1098 26.8772 25.8662 26.8772 26.3344 26.4141L28.4078 24.3406C28.6497 24.0988 29.0407 24.0988 29.2825 24.3406L29.6375 24.6956C29.7764 24.8346 29.7764 25.0661 29.6375 25.205L29.5809 25.2616C29.442 25.4005 29.2105 25.4005 29.0716 25.2616L28.6136 24.8037C28.5879 24.778 28.5468 24.778 28.5159 24.8037L27.7236 25.596C27.6978 25.6218 27.6978 25.6629 27.7236 25.6938L28.4387 26.409C28.9327 26.9029 29.7301 26.9029 30.2189 26.409L30.7849 25.843L30.7797 25.8276Z" fill="white"/>
<path id="Vector_7" d="M24.8011 6.38428C14.4286 6.38428 6.02148 14.7914 6.02148 25.1639C6.02148 35.5364 14.4286 43.9435 24.8011 43.9435C35.1736 43.9435 43.5807 35.5364 43.5807 25.1639C43.5807 14.7914 35.1736 6.38428 24.8011 6.38428ZM25.5677 12.1828C28.5828 12.3577 31.3199 13.5617 33.4397 15.4448L30.7282 18.1563C29.3133 16.9575 27.528 16.1806 25.5677 16.0159V12.1828ZM24.0396 12.1828V16.0159C22.0793 16.1754 20.294 16.9575 18.8791 18.1563L16.1676 15.4448C18.2874 13.5617 21.0246 12.3577 24.0396 12.1828ZM15.0872 16.5253L17.7986 19.2367C16.5998 20.6516 15.8229 22.437 15.6583 24.3973H11.8251C12.0001 21.3823 13.204 18.6451 15.0872 16.5253ZM11.8251 25.9254H15.6583C15.8177 27.8857 16.5998 29.671 17.7986 31.0859L15.0872 33.7974C13.204 31.6776 12.0001 28.9404 11.8251 25.9254ZM24.0396 38.1398C21.0246 37.9649 18.2874 36.7609 16.1676 34.8778L18.8791 32.1664C20.294 33.3652 22.0793 34.1421 24.0396 34.3067V38.1398ZM16.9085 25.1587C16.9085 20.8008 20.4432 17.2662 24.8011 17.2662C29.159 17.2662 32.6937 20.8008 32.6937 25.1587C32.6937 29.5166 29.159 33.0513 24.8011 33.0513C20.4432 33.0513 16.9085 29.5166 16.9085 25.1587ZM25.5677 38.1398V34.3067C27.528 34.1472 29.3133 33.3652 30.7282 32.1664L33.4397 34.8778C31.3199 36.7609 28.5828 37.9649 25.5677 38.1398ZM34.5202 33.7974L31.8087 31.0859C33.0075 29.671 33.7844 27.8857 33.9491 25.9254H37.7822C37.6073 28.9404 36.4033 31.6776 34.5202 33.7974ZM33.9491 24.3973C33.7896 22.437 33.0075 20.6516 31.8087 19.2367L34.5202 16.5253C36.4033 18.6451 37.6073 21.3823 37.7822 24.3973H33.9491Z" fill="white"/>
</g>
</g>
</svg>
