<svg width="50" height="50" viewBox="0 0 50 50" fill="none" xmlns="http://www.w3.org/2000/svg">
<g id="Timer">
<path id="Vector" d="M25.2616 49.1694C18.9846 49.1694 12.7127 46.7821 7.93293 42.0023C-1.62152 32.4478 -1.62152 16.9045 7.93293 7.35003C12.5635 2.71944 18.7171 0.172607 25.2616 0.172607C31.8062 0.172607 37.9597 2.71944 42.5903 7.35003C52.1448 16.9045 52.1448 32.4478 42.5903 42.0023C37.8157 46.7769 31.5387 49.1694 25.2616 49.1694ZM9.21921 40.716C18.0636 49.5604 32.4545 49.5604 41.2989 40.716C50.1433 31.8716 50.1433 17.4807 41.2989 8.63631C37.013 4.35044 31.3174 1.99396 25.2565 1.99396C19.1956 1.99396 13.4999 4.35558 9.21406 8.63631C0.369625 17.4807 0.369625 31.8716 9.21406 40.716H9.21921Z" fill="#7DDACF"/>
<g id="Group">
<path id="Vector_2" d="M26.1686 19.5183L21.6306 25.8776H24.3524V30.4156L28.8903 24.0614H26.1686V19.5183Z" fill="#7DDACF"/>
<path id="Vector_3" d="M25.2569 15.9834C20.2867 15.9834 16.2529 20.0172 16.2529 24.9873C16.2529 29.9575 20.2867 33.981 25.2569 33.981C30.227 33.981 34.2608 29.9472 34.2608 24.9873C34.2608 20.0274 30.227 15.9834 25.2569 15.9834ZM25.2569 32.8696C20.8938 32.8696 17.354 29.3298 17.354 24.9668C17.354 20.6037 20.8938 17.0639 25.2569 17.0639C29.6199 17.0639 33.1598 20.6037 33.1598 24.9668C33.1598 29.3298 29.6199 32.8696 25.2569 32.8696Z" fill="#7DDACF"/>
<path id="Vector_4" d="M39.1752 10.7613C35.4604 7.04139 30.516 4.99878 25.2577 4.99878C19.9994 4.99878 15.0601 7.04654 11.3402 10.7613C3.66883 18.4326 3.66883 30.9198 11.3402 38.5963C15.1784 42.4345 20.2155 44.3537 25.2577 44.3537C30.2999 44.3537 35.337 42.4345 39.1752 38.5963C46.8465 30.9249 46.8465 18.4378 39.1752 10.7613ZM25.2577 37.202C18.5279 37.202 13.0484 31.7224 13.0484 24.9926C13.0484 22.0188 14.1134 19.2919 15.8833 17.1618L14.3912 15.6697C13.9642 15.2427 13.9642 14.5481 14.3912 14.1159C14.8183 13.6837 15.5129 13.6889 15.9451 14.1159L17.4371 15.608C19.2894 14.0593 21.6201 13.0406 24.1618 12.8245V11.816H23.1533C22.2632 11.816 21.5275 11.0803 21.5275 10.1902V9.34125C21.5275 8.44085 22.2632 7.71541 23.1533 7.71541H27.3723C28.2624 7.71541 28.9982 8.44085 28.9982 9.34125V10.1902C28.9982 11.0803 28.2624 11.816 27.3723 11.816H26.3639V12.8245C28.9107 13.0457 31.2363 14.0644 33.0885 15.608L34.5806 14.1159C35.0076 13.6889 35.7022 13.6889 36.1344 14.1159C36.5615 14.543 36.5615 15.2375 36.1344 15.6697L34.6423 17.1618C36.4123 19.2919 37.4773 22.0136 37.4773 24.9926C37.4773 31.7224 31.9978 37.202 25.268 37.202H25.2577Z" fill="#7DDACF"/>
</g>
</g>
</svg>
