<svg width="50" height="50" viewBox="0 0 50 50" fill="none" xmlns="http://www.w3.org/2000/svg">
<g id="Soccer">
<path id="Vector" d="M25.3703 49.5375C11.8645 49.5375 0.879639 38.5476 0.879639 25.0468C0.879639 11.5461 11.8696 0.556152 25.3703 0.556152C38.8711 0.556152 49.861 11.5461 49.861 25.0468C49.861 38.5476 38.8711 49.5375 25.3703 49.5375ZM25.3703 2.18714C12.7648 2.18714 2.51066 12.4413 2.51066 25.0468C2.51066 37.6523 12.7648 47.9065 25.3703 47.9065C37.9758 47.9065 48.23 37.6523 48.23 25.0468C48.23 12.4413 37.9758 2.18714 25.3703 2.18714Z" fill="white"/>
<g id="Group">
<path id="Vector_2" d="M33.3137 9.75023C33.1903 9.75023 33.0668 9.72451 32.9536 9.66792C30.5817 8.49483 28.0297 7.898 25.3697 7.898C22.7097 7.898 20.1577 8.49483 17.7858 9.66792C17.472 9.82227 17.0964 9.7605 16.8494 9.51354L12.6407 5.30485C12.4606 5.12477 12.3783 4.8778 12.4092 4.62569C12.4401 4.37358 12.5841 4.15235 12.8002 4.02372C16.5922 1.74959 20.9398 0.550781 25.3749 0.550781C29.8099 0.550781 34.1575 1.75474 37.9495 4.02372C38.1656 4.15235 38.3096 4.37358 38.3405 4.62569C38.3714 4.8778 38.2839 5.12477 38.109 5.30485L33.9003 9.51354C33.7408 9.66789 33.535 9.75023 33.3189 9.75023H33.3137ZM25.3697 6.26698C28.0812 6.26698 30.6949 6.83295 33.1439 7.94944L36.1898 4.90355C32.8764 3.1182 29.1565 2.18177 25.3697 2.18177C21.5829 2.18177 17.863 3.1182 14.5495 4.90355L17.5955 7.94944C20.0445 6.83295 22.6582 6.26698 25.3697 6.26698Z" fill="white"/>
<path id="Vector_3" d="M25.369 49.5375C20.9339 49.5375 16.5863 48.3335 12.7944 46.0645C12.5783 45.9359 12.4342 45.7146 12.4033 45.4625C12.3725 45.2104 12.4599 44.9635 12.6349 44.7834L16.8436 40.5747C17.0905 40.3277 17.4713 40.266 17.78 40.4203C20.1519 41.5934 22.7038 42.1903 25.3638 42.1903C28.0239 42.1903 30.5758 41.5934 32.9477 40.4203C33.2616 40.266 33.6372 40.3277 33.8841 40.5747L38.0928 44.7834C38.2729 44.9635 38.3552 45.2104 38.3244 45.4625C38.2935 45.7146 38.1494 45.9359 37.9333 46.0645C34.1414 48.3387 29.7938 49.5375 25.3587 49.5375H25.369ZM14.5488 45.1847C17.8623 46.9701 21.5822 47.9065 25.369 47.9065C29.1558 47.9065 32.8757 46.9701 36.1891 45.1847L33.1432 42.1388C30.6942 43.2553 28.0805 43.8212 25.369 43.8212C22.6575 43.8212 20.0438 43.2553 17.5947 42.1388L14.5488 45.1847Z" fill="white"/>
<path id="Vector_4" d="M45.689 38.0124C45.4729 38.0124 45.2671 37.93 45.1127 37.7757L40.904 33.567C40.6571 33.32 40.5953 32.9393 40.7497 32.6306C41.9228 30.2587 42.5196 27.7067 42.5196 25.0467C42.5196 22.3867 41.9228 19.8347 40.7497 17.4628C40.5953 17.149 40.6571 16.7682 40.904 16.5264L45.1127 12.3177C45.2928 12.1376 45.5398 12.0553 45.7919 12.0862C46.044 12.1171 46.2652 12.2611 46.3938 12.4772C48.668 16.2692 49.8668 20.6168 49.8668 25.0519C49.8668 29.4869 48.668 33.8345 46.3938 37.6265C46.2652 37.8426 46.044 37.9866 45.7919 38.0175C45.7559 38.0175 45.725 38.0175 45.689 38.0175V38.0124ZM42.463 32.8158L45.5089 35.8617C47.2943 32.5483 48.2306 28.8283 48.2306 25.0416C48.2306 21.2548 47.2943 17.5349 45.5089 14.2214L42.463 17.2673C43.5795 19.7164 44.1454 22.3301 44.1454 25.0416C44.1454 27.753 43.5795 30.3668 42.463 32.8158Z" fill="white"/>
<path id="Vector_5" d="M5.0521 38.0124C5.01608 38.0124 4.98521 38.0124 4.95434 38.0072C4.70223 37.9764 4.48097 37.8323 4.35234 37.6162C2.0782 33.8243 0.879395 29.4766 0.879395 25.0416C0.879395 20.6065 2.0782 16.2589 4.35234 12.467C4.48097 12.2509 4.70223 12.1068 4.95434 12.0759C5.20645 12.0451 5.45342 12.1325 5.6335 12.3074L9.84219 16.5162C10.0892 16.7631 10.1509 17.1438 9.99653 17.4525C8.82345 19.8244 8.22662 22.3764 8.22662 25.0364C8.22662 27.6965 8.82345 30.2484 9.99653 32.6203C10.1509 32.9342 10.0892 33.3149 9.84219 33.5567L5.6335 37.7654C5.47914 37.9198 5.27331 38.0072 5.05722 38.0072L5.0521 38.0124ZM5.23216 14.2214C3.44681 17.5349 2.51041 21.2548 2.51041 25.0416C2.51041 28.8284 3.44681 32.5483 5.23216 35.8617L8.27805 32.8158C7.16157 30.3668 6.59563 27.753 6.59563 25.0416C6.59563 22.3301 7.16157 19.7164 8.27805 17.2673L5.23216 14.2214Z" fill="white"/>
</g>
<path id="Vector_6" d="M25.3707 6.26709C15.0187 6.26709 6.59106 14.6896 6.59106 25.0467C6.59106 35.4038 15.0136 43.8263 25.3707 43.8263C35.7278 43.8263 44.1503 35.4038 44.1503 25.0467C44.1503 14.6896 35.7278 6.26709 25.3707 6.26709ZM35.9387 18.8777C36.8288 20.4007 37.3691 22.0626 37.544 23.8273C37.5491 23.8994 37.5183 23.9663 37.4565 24.0023C36.1137 24.8255 34.9097 25.8339 33.8704 27.0121C33.8241 27.0687 33.7469 27.0893 33.68 27.0636L31.3596 26.3073C31.2927 26.2867 31.2464 26.2301 31.2361 26.1581C30.9737 24.2389 30.3769 22.4022 29.4611 20.694C29.4302 20.6322 29.4353 20.5602 29.4765 20.5036L30.9119 18.5279C30.948 18.4816 31.0046 18.4507 31.0612 18.4507C31.0766 18.4507 31.0869 18.4507 31.1023 18.4507C32.6356 18.7903 34.21 18.9035 35.7741 18.7748C35.8461 18.7697 35.913 18.8057 35.949 18.8674L35.9387 18.8777ZM29.9704 26.4822C29.9756 26.5337 29.9601 26.5851 29.9292 26.6211C28.7099 28.0257 27.156 29.1525 25.4427 29.8728C25.3964 29.8934 25.3501 29.8934 25.3038 29.8728C23.5905 29.1474 22.0366 28.0206 20.8173 26.6211C20.7864 26.5851 20.771 26.5337 20.7761 26.4822C21.0128 24.6197 21.5942 22.8395 22.4946 21.193C22.5203 21.1467 22.5615 21.1159 22.6129 21.1056C23.5185 20.9152 24.4446 20.8175 25.3758 20.8175C26.3071 20.8175 27.2332 20.9152 28.1388 21.1056C28.1902 21.1159 28.2314 21.1467 28.2571 21.193C29.1575 22.8395 29.7337 24.6197 29.9756 26.4822H29.9704ZM29.6926 13.7121C29.6926 13.7121 29.7543 13.6606 29.8161 13.6606C29.8366 13.6606 29.8623 13.6606 29.8881 13.676C31.7815 14.4272 33.4742 15.6621 34.7914 17.2416C34.8583 17.3188 34.8325 17.4011 34.8171 17.432C34.8068 17.4577 34.7605 17.54 34.6524 17.54C33.4845 17.5555 32.3217 17.4217 31.1949 17.1541C31.1486 17.1439 31.1075 17.113 31.0817 17.0718C30.4798 16.0788 29.9961 15.0086 29.6463 13.8973C29.6154 13.7995 29.672 13.7326 29.6977 13.7121H29.6926ZM22.7724 13.0947C24.4754 12.7293 26.2711 12.7293 27.9741 13.0947C28.041 13.1101 28.0976 13.1615 28.113 13.2284C28.4783 14.7565 29.07 16.2177 29.8675 17.5709C29.9035 17.6326 29.8984 17.7098 29.8572 17.7716L28.432 19.737C28.3909 19.7936 28.3188 19.8244 28.2519 19.809C26.3688 19.4283 24.3777 19.4283 22.4946 19.809C22.4277 19.8244 22.3557 19.7936 22.3145 19.737L20.8893 17.7716C20.8481 17.715 20.843 17.6326 20.879 17.5709C21.6765 16.2177 22.2682 14.7565 22.6335 13.2284C22.6489 13.1615 22.7055 13.1101 22.7724 13.0947ZM15.9552 17.2416C17.2723 15.6569 18.965 14.4221 20.8584 13.676C20.8841 13.6658 20.9099 13.6606 20.9305 13.6606C20.9973 13.6606 21.0385 13.6966 21.0539 13.7121C21.0797 13.7378 21.1362 13.7995 21.1054 13.8973C20.7555 15.0138 20.2719 16.0788 19.6699 17.0718C19.6442 17.113 19.603 17.1439 19.5567 17.1541C18.43 17.4217 17.2671 17.5555 16.0992 17.54C15.9912 17.54 15.9448 17.4577 15.9346 17.432C15.9191 17.4011 15.8934 17.3188 15.9603 17.2416H15.9552ZM14.8078 18.8777C14.8386 18.8211 14.9004 18.7851 14.9673 18.7851C14.9673 18.7851 14.9776 18.7851 14.9827 18.7851C16.552 18.9086 18.1264 18.8006 19.6545 18.461C19.7265 18.4456 19.7985 18.4713 19.8397 18.533L21.2752 20.5087C21.3163 20.5653 21.3215 20.6425 21.2906 20.6991C20.3748 22.4073 19.778 24.2441 19.5156 26.1632C19.5053 26.2301 19.459 26.2867 19.3921 26.3124L17.0716 27.0687C17.0047 27.0893 16.9276 27.0687 16.8813 27.0173C15.842 25.8391 14.638 24.8306 13.2951 24.0074C13.2385 23.9714 13.2025 23.9045 13.2077 23.8325C13.3826 22.0677 13.9228 20.4007 14.8129 18.8829L14.8078 18.8777ZM15.3686 31.5553C15.3377 31.653 15.2503 31.6736 15.2143 31.6788C15.1782 31.6788 15.0959 31.6788 15.0393 31.5964C13.9434 29.8728 13.2951 27.8765 13.1665 25.8288C13.1613 25.7259 13.2282 25.6744 13.2591 25.659C13.29 25.6435 13.3723 25.6075 13.4546 25.6693C14.4065 26.3433 15.2708 27.1356 16.0272 28.0154C16.058 28.0515 16.0735 28.0978 16.0683 28.1492C15.9757 29.3069 15.739 30.4542 15.3635 31.5604L15.3686 31.5553ZM20.452 36.2528C18.8467 35.5479 17.4318 34.5137 16.2484 33.1863C16.2021 33.1348 16.1867 33.0576 16.2124 32.9959C16.8144 31.545 17.1951 30.0169 17.3443 28.4528C17.3495 28.3807 17.4009 28.319 17.4678 28.2984L19.7625 27.5524C19.7625 27.5524 19.7985 27.5421 19.8191 27.5421C19.8706 27.5421 19.9169 27.5627 19.9529 27.6038C21.2392 29.0445 22.8496 30.2175 24.6143 30.9944C24.6812 31.0253 24.7224 31.0871 24.7224 31.1591V33.5722C24.7224 33.6442 24.6812 33.7111 24.6143 33.7368C23.1737 34.3594 21.836 35.198 20.6372 36.2219C20.5857 36.2682 20.5086 36.2785 20.4468 36.2476L20.452 36.2528ZM28.5452 36.7621C28.5401 36.7981 28.5143 36.8805 28.4114 36.9062C26.4254 37.4104 24.3262 37.4104 22.3402 36.9062C22.2425 36.8805 22.2116 36.7981 22.2064 36.7621C22.2013 36.7261 22.191 36.6438 22.2785 36.5769C23.2149 35.8823 24.2336 35.3009 25.3089 34.8533C25.3553 34.8327 25.4015 34.8327 25.4478 34.8533C26.518 35.3009 27.5368 35.8823 28.4783 36.5769C28.5606 36.6386 28.5555 36.7261 28.5504 36.7621H28.5452ZM34.5084 33.1914C33.325 34.5189 31.9101 35.5479 30.3048 36.2528C30.2379 36.2836 30.1659 36.2682 30.1145 36.227C28.9156 35.2032 27.5831 34.3645 26.1373 33.7419C26.0704 33.7111 26.0292 33.6493 26.0292 33.5773V31.1642C26.0292 31.0922 26.0704 31.0253 26.1373 30.9996C27.9021 30.2227 29.5176 29.0496 30.7988 27.609C30.8348 27.5678 30.8811 27.5473 30.9325 27.5473C30.9531 27.5473 30.9685 27.5472 30.9891 27.5575L33.2839 28.3036C33.3507 28.3242 33.4022 28.3859 33.4073 28.4579C33.5565 30.022 33.9373 31.545 34.5393 33.0011C34.565 33.0628 34.5547 33.14 34.5032 33.1914H34.5084ZM35.7123 31.6016C35.6557 31.689 35.5683 31.6891 35.5374 31.6839C35.5014 31.6839 35.4191 31.6582 35.383 31.5604C35.0126 30.4542 34.7759 29.3069 34.6782 28.1492C34.6782 28.1029 34.6885 28.0515 34.7193 28.0154C35.4757 27.1356 36.34 26.3484 37.2919 25.6693C37.3279 25.6436 37.3639 25.6333 37.3948 25.6333C37.4359 25.6333 37.4668 25.6487 37.4874 25.659C37.5183 25.6744 37.5903 25.7259 37.58 25.8288C37.4514 27.8765 36.8031 29.8728 35.7072 31.5964L35.7123 31.6016Z" fill="white"/>
</g>
</svg>
