<svg width="50" height="50" viewBox="0 0 50 50" fill="none" xmlns="http://www.w3.org/2000/svg">
<g id="Shield">
<path id="Vector" d="M24.953 49.6172C18.676 49.6172 12.4041 47.2299 7.62434 42.4501C-1.93012 32.8956 -1.93012 17.3522 7.62434 7.79779C12.2549 3.16719 18.4085 0.620361 24.953 0.620361C31.4976 0.620361 37.6511 3.16719 42.2817 7.79779C51.8362 17.3522 51.8362 32.8956 42.2817 42.4501C37.5071 47.2247 31.2301 49.6172 24.953 49.6172ZM8.91061 41.1638C17.755 50.0082 32.1459 50.0082 40.9903 41.1638C49.8347 32.3194 49.8347 17.9285 40.9903 9.08406C36.7044 4.79819 31.0088 2.44175 24.9479 2.44175C18.887 2.44175 13.1913 4.80334 8.90546 9.08406C0.0610315 17.9285 0.0610315 32.3194 8.90546 41.1638H8.91061Z" fill="#9DADF2"/>
<g id="Group">
<path id="Vector_2" d="M24.6288 34.2898C24.7163 34.5008 24.9221 34.6242 25.1382 34.6242C25.2102 34.6242 25.2823 34.6088 25.3543 34.5831C27.0831 33.8576 28.6575 32.7359 29.9026 31.3365C30.1032 31.1101 30.0827 30.7603 29.8563 30.5596C29.6299 30.3589 29.28 30.3795 29.0794 30.6059C27.9423 31.887 26.5068 32.9109 24.9273 33.5695C24.6494 33.6878 24.5157 34.012 24.634 34.2898H24.6288Z" fill="#9DADF2"/>
<path id="Vector_3" d="M34.2908 16.6523L25.1531 12.9993C25.0193 12.9478 24.8753 12.9478 24.7415 12.9993L15.6038 16.6523C15.3928 16.7346 15.259 16.9353 15.259 17.1617V23.7062C15.2693 29.7466 19.087 35.2055 24.7569 37.2842C24.8186 37.3048 24.8804 37.3151 24.9473 37.3151C25.0142 37.3151 25.0759 37.3048 25.1376 37.2842C30.8075 35.2004 34.6252 29.7466 34.6355 23.7062V17.1617C34.6355 16.9353 34.5017 16.7346 34.2908 16.6523ZM33.5344 23.7062C33.5242 29.2012 30.0769 34.2074 24.9524 36.178C19.8279 34.2074 16.3755 29.2012 16.3652 23.7062V17.5373L24.9524 14.1055L33.5344 17.5373V23.7062Z" fill="#9DADF2"/>
<path id="Vector_4" d="M21.1349 17.5117C21.0011 17.4551 20.8519 17.4551 20.713 17.5117L18.5366 18.3812C18.3257 18.4636 18.1919 18.6642 18.1919 18.8906V21.211C18.1919 21.5146 18.4389 21.7615 18.7424 21.7615C19.046 21.7615 19.293 21.5146 19.293 21.211V19.2662L21.1195 18.5356C21.2584 18.479 21.3613 18.3761 21.423 18.2372C21.4796 18.1034 21.4796 17.9542 21.423 17.8153C21.3664 17.6764 21.2635 17.5734 21.1298 17.5117H21.1349Z" fill="#9DADF2"/>
<path id="Vector_5" d="M38.8646 11.2088C35.1499 7.4889 30.2054 5.44629 24.9471 5.44629C19.6888 5.44629 14.7495 7.49405 11.0296 11.2088C3.35829 18.8802 3.35829 31.3673 11.0296 39.0438C14.8679 42.8821 19.9049 44.796 24.9471 44.796C29.9893 44.796 35.0264 42.8769 38.8646 39.0438C46.536 31.3725 46.536 18.8853 38.8646 11.2088ZM36.1429 23.7063C36.1583 30.6882 31.6975 36.7954 25.0449 38.9101C24.9831 38.9306 24.9163 38.9306 24.8494 38.9101C18.1968 36.7954 13.7359 30.6882 13.7514 23.7063V15.9834C13.7514 15.8548 13.8286 15.7365 13.952 15.6851L24.8288 11.3374C24.8648 11.322 24.906 11.3169 24.9471 11.3169C24.9883 11.3169 25.0294 11.322 25.0655 11.3374L35.9422 15.6902C36.0657 15.7365 36.1429 15.8548 36.1429 15.9886V23.7114V23.7063Z" fill="#9DADF2"/>
</g>
</g>
</svg>
