<svg width="50" height="50" viewBox="0 0 50 50" fill="none" xmlns="http://www.w3.org/2000/svg">
<g id="Soccer">
<path id="Vector" d="M25.3464 49.8329C11.8405 49.8329 0.855713 38.843 0.855713 25.3422C0.855713 11.8415 11.8456 0.851562 25.3464 0.851562C38.8471 0.851562 49.8371 11.8415 49.8371 25.3422C49.8371 38.843 38.8471 49.8329 25.3464 49.8329ZM25.3464 2.48255C12.7409 2.48255 2.4867 12.7367 2.4867 25.3422C2.4867 37.9477 12.7409 48.2019 25.3464 48.2019C37.9519 48.2019 48.2061 37.9477 48.2061 25.3422C48.2061 12.7367 37.9519 2.48255 25.3464 2.48255Z" fill="#9DADF2"/>
<g id="Group">
<path id="Vector_2" d="M33.292 10.051C33.1685 10.051 33.045 10.0253 32.9318 9.96867C30.56 8.79558 28.008 8.19875 25.348 8.19875C22.688 8.19875 20.136 8.79558 17.7641 9.96867C17.4502 10.123 17.0746 10.0613 16.8277 9.81432L12.619 5.60563C12.4389 5.42555 12.3566 5.17858 12.3875 4.92647C12.4183 4.67436 12.5624 4.45313 12.7785 4.32451C16.5704 2.05037 20.918 0.851562 25.3531 0.851562C29.7882 0.851562 34.1358 2.05552 37.9278 4.32451C38.1438 4.45313 38.2879 4.67436 38.3188 4.92647C38.3497 5.17858 38.2622 5.42555 38.0872 5.60563L33.8786 9.81432C33.7191 9.96867 33.5133 10.051 33.2972 10.051H33.292ZM25.348 6.56776C28.0594 6.56776 30.6731 7.13373 33.1222 8.25022L36.1681 5.2043C32.8547 3.41895 29.1348 2.48255 25.348 2.48255C21.5612 2.48255 17.8413 3.41895 14.5278 5.2043L17.5737 8.25022C20.0228 7.13373 22.6365 6.56776 25.348 6.56776Z" fill="#9DADF2"/>
<path id="Vector_3" d="M25.3473 49.8329C20.9122 49.8329 16.5646 48.6289 12.7726 46.3599C12.5565 46.2313 12.4125 46.01 12.3816 45.7579C12.3507 45.5058 12.4382 45.2589 12.6131 45.0788L16.8218 40.8701C17.0688 40.6231 17.4495 40.5614 17.7582 40.7157C20.1301 41.8888 22.6821 42.4857 25.3421 42.4857C28.0021 42.4857 30.5541 41.8888 32.926 40.7157C33.2399 40.5614 33.6154 40.6231 33.8624 40.8701L38.0711 45.0788C38.2512 45.2589 38.3335 45.5058 38.3026 45.7579C38.2718 46.01 38.1277 46.2313 37.9116 46.3599C34.1197 48.634 29.7721 49.8329 25.337 49.8329H25.3473ZM14.5271 45.4801C17.8406 47.2655 21.5605 48.2019 25.3473 48.2019C29.1341 48.2019 32.854 47.2655 36.1674 45.4801L33.1215 42.4342C30.6724 43.5507 28.0587 44.1167 25.3473 44.1167C22.6358 44.1167 20.0221 43.5507 17.573 42.4342L14.5271 45.4801Z" fill="#9DADF2"/>
<path id="Vector_4" d="M45.6653 38.3131C45.4492 38.3131 45.2434 38.2308 45.089 38.0765L40.8803 33.8678C40.6334 33.6208 40.5716 33.2401 40.726 32.9314C41.8991 30.5595 42.4959 28.0075 42.4959 25.3475C42.4959 22.6875 41.8991 20.1355 40.726 17.7636C40.5716 17.4498 40.6334 17.069 40.8803 16.8272L45.089 12.6185C45.2691 12.4384 45.5161 12.3561 45.7682 12.387C46.0203 12.4178 46.2415 12.5619 46.3702 12.778C48.6443 16.5699 49.8431 20.9176 49.8431 25.3526C49.8431 29.7877 48.6443 34.1353 46.3702 37.9273C46.2415 38.1434 46.0203 38.2874 45.7682 38.3183C45.7322 38.3183 45.7013 38.3183 45.6653 38.3183V38.3131ZM42.4393 33.1166L45.4852 36.1625C47.2706 32.8491 48.207 29.1291 48.207 25.3423C48.207 21.5555 47.2706 17.8356 45.4852 14.5222L42.4393 17.5681C43.5558 20.0172 44.1218 22.6309 44.1218 25.3423C44.1218 28.0538 43.5558 30.6675 42.4393 33.1166Z" fill="#9DADF2"/>
<path id="Vector_5" d="M5.02838 38.3132C4.99237 38.3132 4.96149 38.3132 4.93062 38.308C4.67851 38.2772 4.45728 38.1331 4.32866 37.917C2.05452 34.1251 0.855713 29.7775 0.855713 25.3424C0.855713 20.9073 2.05452 16.5597 4.32866 12.7677C4.45728 12.5517 4.67851 12.4076 4.93062 12.3767C5.18273 12.3458 5.4297 12.4333 5.60978 12.6083L9.81847 16.8169C10.0654 17.0639 10.1272 17.4446 9.97282 17.7534C8.79973 20.1252 8.2029 22.6772 8.2029 25.3372C8.2029 27.9972 8.79973 30.5492 9.97282 32.9211C10.1272 33.235 10.0654 33.6157 9.81847 33.8575L5.60978 38.0662C5.45543 38.2206 5.24963 38.308 5.03353 38.308L5.02838 38.3132ZM5.20845 14.5222C3.4231 17.8357 2.4867 21.5556 2.4867 25.3424C2.4867 29.1292 3.4231 32.8491 5.20845 36.1625L8.25437 33.1166C7.13788 30.6675 6.57191 28.0538 6.57191 25.3424C6.57191 22.6309 7.13788 20.0172 8.25437 17.5681L5.20845 14.5222Z" fill="#9DADF2"/>
</g>
<path id="Vector_6" d="M25.347 6.56274C14.9951 6.56274 6.56738 14.9853 6.56738 25.3424C6.56738 35.6995 14.9899 44.122 25.347 44.122C35.7041 44.122 44.1266 35.6995 44.1266 25.3424C44.1266 14.9853 35.7041 6.56274 25.347 6.56274ZM35.9151 19.1734C36.8052 20.6963 37.3454 22.3582 37.5203 24.123C37.5255 24.195 37.4946 24.2619 37.4328 24.2979C36.09 25.1211 34.886 26.1296 33.8467 27.3078C33.8004 27.3644 33.7232 27.385 33.6564 27.3592L31.3359 26.6029C31.269 26.5823 31.2227 26.5258 31.2124 26.4537C30.95 24.5346 30.3532 22.6978 29.4374 20.9896C29.4065 20.9279 29.4117 20.8558 29.4528 20.7992L30.8883 18.8235C30.9243 18.7772 30.9809 18.7463 31.0375 18.7463C31.0529 18.7463 31.0632 18.7463 31.0787 18.7463C32.6119 19.0859 34.1863 19.1991 35.7504 19.0705C35.8225 19.0653 35.8893 19.1014 35.9253 19.1631L35.9151 19.1734ZM29.9467 26.7778C29.9519 26.8293 29.9364 26.8808 29.9056 26.9168C28.6862 28.3214 27.1324 29.4482 25.419 30.1685C25.3727 30.1891 25.3264 30.1891 25.2801 30.1685C23.5668 29.443 22.013 28.3162 20.7936 26.9168C20.7627 26.8808 20.7473 26.8293 20.7524 26.7778C20.9891 24.9153 21.5705 23.1351 22.4709 21.4887C22.4966 21.4424 22.5378 21.4115 22.5892 21.4012C23.4948 21.2109 24.4209 21.1131 25.3522 21.1131C26.2834 21.1131 27.2095 21.2109 28.1151 21.4012C28.1665 21.4115 28.2077 21.4424 28.2334 21.4887C29.1338 23.1351 29.7101 24.9153 29.9519 26.7778H29.9467ZM29.6689 14.0077C29.6689 14.0077 29.7306 13.9563 29.7924 13.9563C29.813 13.9563 29.8387 13.9563 29.8644 13.9717C31.7578 14.7229 33.4505 15.9577 34.7677 17.5373C34.8346 17.6144 34.8088 17.6968 34.7934 17.7276C34.7831 17.7533 34.7368 17.8357 34.6288 17.8357C33.4609 17.8511 32.298 17.7173 31.1713 17.4498C31.125 17.4395 31.0838 17.4086 31.0581 17.3675C30.4561 16.3745 29.9725 15.3043 29.6226 14.1929C29.5917 14.0952 29.6483 14.0283 29.6741 14.0077H29.6689ZM22.7487 13.3903C24.4518 13.025 26.2474 13.025 27.9504 13.3903C28.0173 13.4057 28.0739 13.4572 28.0894 13.5241C28.4547 15.0522 29.0463 16.5134 29.8438 17.8665C29.8798 17.9283 29.8747 18.0054 29.8336 18.0672L28.4083 20.0326C28.3672 20.0892 28.2952 20.1201 28.2283 20.1047C26.3452 19.7239 24.354 19.7239 22.4709 20.1047C22.404 20.1201 22.332 20.0892 22.2908 20.0326L20.8656 18.0672C20.8245 18.0106 20.8193 17.9283 20.8553 17.8665C21.6528 16.5134 22.2445 15.0522 22.6098 13.5241C22.6252 13.4572 22.6818 13.4057 22.7487 13.3903ZM15.9315 17.5373C17.2486 15.9526 18.9414 14.7177 20.8348 13.9717C20.8605 13.9614 20.8862 13.9563 20.9068 13.9563C20.9737 13.9563 21.0148 13.9923 21.0303 14.0077C21.056 14.0334 21.1126 14.0952 21.0817 14.1929C20.7319 15.3094 20.2482 16.3745 19.6462 17.3675C19.6205 17.4086 19.5794 17.4395 19.533 17.4498C18.4063 17.7173 17.2435 17.8511 16.0756 17.8357C15.9675 17.8357 15.9212 17.7533 15.9109 17.7276C15.8955 17.6968 15.8697 17.6144 15.9366 17.5373H15.9315ZM14.7841 19.1734C14.815 19.1168 14.8767 19.0808 14.9436 19.0808C14.9436 19.0808 14.9539 19.0808 14.959 19.0808C16.5283 19.2043 18.1027 19.0962 19.6308 18.7566C19.7028 18.7412 19.7749 18.7669 19.816 18.8287L21.2515 20.8044C21.2927 20.861 21.2978 20.9382 21.2669 20.9947C20.3511 22.7029 19.7543 24.5397 19.4919 26.4588C19.4816 26.5257 19.4353 26.5823 19.3684 26.6081L17.048 27.3644C16.9811 27.385 16.9039 27.3644 16.8576 27.313C15.8183 26.1347 14.6143 25.1263 13.2715 24.303C13.2149 24.267 13.1788 24.2002 13.184 24.1281C13.3589 22.3634 13.8992 20.6964 14.7893 19.1785L14.7841 19.1734ZM15.3449 31.8509C15.3141 31.9487 15.2266 31.9693 15.1906 31.9744C15.1546 31.9744 15.0722 31.9744 15.0156 31.8921C13.9197 30.1685 13.2715 28.1722 13.1428 26.1244C13.1377 26.0215 13.2046 25.9701 13.2354 25.9546C13.2663 25.9392 13.3486 25.9032 13.431 25.9649C14.3828 26.6389 15.2472 27.4313 16.0035 28.3111C16.0344 28.3471 16.0498 28.3934 16.0447 28.4449C15.952 29.6025 15.7154 30.7499 15.3398 31.8561L15.3449 31.8509ZM20.4283 36.5484C18.823 35.8435 17.4081 34.8094 16.2247 33.4819C16.1784 33.4305 16.163 33.3533 16.1887 33.2916C16.7907 31.8406 17.1715 30.3125 17.3207 28.7484C17.3258 28.6764 17.3772 28.6147 17.4441 28.5941L19.7389 27.848C19.7389 27.848 19.7749 27.8377 19.7955 27.8377C19.8469 27.8377 19.8932 27.8583 19.9292 27.8995C21.2155 29.3401 22.8259 30.5132 24.5907 31.2901C24.6576 31.321 24.6987 31.3827 24.6987 31.4548V33.8678C24.6987 33.9398 24.6576 34.0067 24.5907 34.0325C23.1501 34.655 21.8123 35.4937 20.6135 36.5175C20.5621 36.5639 20.4849 36.5741 20.4231 36.5433L20.4283 36.5484ZM28.5215 37.0578C28.5164 37.0938 28.4907 37.1761 28.3878 37.2018C26.4018 37.706 24.3025 37.706 22.3165 37.2018C22.2188 37.1761 22.1879 37.0938 22.1828 37.0578C22.1776 37.0218 22.1673 36.9394 22.2548 36.8726C23.1912 36.178 24.2099 35.5966 25.2853 35.1489C25.3316 35.1283 25.3779 35.1283 25.4242 35.1489C26.4944 35.5966 27.5131 36.178 28.4547 36.8726C28.537 36.9343 28.5318 37.0218 28.5267 37.0578H28.5215ZM34.4847 33.4871C33.3013 34.8145 31.8864 35.8435 30.2812 36.5484C30.2143 36.5793 30.1423 36.5638 30.0908 36.5227C28.892 35.4988 27.5594 34.6602 26.1136 34.0376C26.0467 34.0067 26.0056 33.945 26.0056 33.873V31.4599C26.0056 31.3879 26.0467 31.321 26.1136 31.2953C27.8784 30.5183 29.494 29.3452 30.7751 27.9046C30.8111 27.8635 30.8574 27.8429 30.9089 27.8429C30.9294 27.8429 30.9449 27.8429 30.9654 27.8532L33.2602 28.5992C33.3271 28.6198 33.3785 28.6815 33.3837 28.7536C33.5329 30.3177 33.9136 31.8406 34.5156 33.2967C34.5413 33.3584 34.531 33.4356 34.4796 33.4871H34.4847ZM35.6887 31.8972C35.6321 31.9847 35.5446 31.9847 35.5137 31.9796C35.4777 31.9796 35.3954 31.9538 35.3594 31.8561C34.9889 30.7499 34.7523 29.6025 34.6545 28.4449C34.6545 28.3986 34.6648 28.3471 34.6956 28.3111C35.452 27.4313 36.3164 26.6441 37.2682 25.9649C37.3042 25.9392 37.3402 25.9289 37.3711 25.9289C37.4123 25.9289 37.4431 25.9443 37.4637 25.9546C37.4946 25.9701 37.5666 26.0215 37.5564 26.1244C37.4277 28.1722 36.7794 30.1685 35.6835 31.8921L35.6887 31.8972Z" fill="#9DADF2"/>
</g>
</svg>
