<svg width="50" height="50" viewBox="0 0 50 50" fill="none" xmlns="http://www.w3.org/2000/svg">
<g id="M">
<path id="Vector" d="M25.3757 49.9074C11.8698 49.9074 0.88501 38.9174 0.88501 25.4167C0.88501 11.916 11.8749 0.926025 25.3757 0.926025C38.8764 0.926025 49.8664 11.916 49.8664 25.4167C49.8664 38.9174 38.8764 49.9074 25.3757 49.9074ZM25.3757 2.55701C12.7702 2.55701 2.516 12.8112 2.516 25.4167C2.516 38.0222 12.7702 48.2764 25.3757 48.2764C37.9812 48.2764 48.2354 38.0222 48.2354 25.4167C48.2354 12.8112 37.9812 2.55701 25.3757 2.55701Z" fill="#7DDACF"/>
<g id="Group">
<path id="Vector_2" d="M41.3577 7.94108L33.7759 15.5229L35.2675 17.0146L42.8494 9.43273L41.3577 7.94108Z" fill="#7DDACF"/>
<path id="Vector_3" d="M15.2576 34.0402L7.67578 41.6221L9.16741 43.1137L16.7493 35.5318L15.2576 34.0402Z" fill="#7DDACF"/>
<path id="Vector_4" d="M35.4897 34.0438L33.998 35.5354L41.5799 43.1173L43.0715 41.6256L35.4897 34.0438Z" fill="#7DDACF"/>
<path id="Vector_5" d="M9.1657 7.71638L7.67407 9.20801L15.2523 16.7863L16.7439 15.2946L9.1657 7.71638Z" fill="#7DDACF"/>
</g>
<g id="Group_2">
<path id="Vector_6" d="M31.3491 26.0751C31.843 25.5812 31.843 24.7837 31.3491 24.2949L30.2995 23.2505C29.8055 22.7565 29.0081 22.7565 28.5193 23.2505L27.9533 23.8164L27.2999 23.163C26.806 22.6691 26.0085 22.6691 25.5197 23.163L24.9537 23.7341L24.3003 23.0755C23.8064 22.5816 23.0089 22.5816 22.5201 23.0755L19.0471 26.5485C19.0214 26.5742 19.0214 26.6154 19.0471 26.6462C19.5102 27.1093 20.2665 27.1093 20.7347 26.6462L22.9728 24.4081C23.2147 24.1663 23.6057 24.1663 23.8475 24.4081L24.0122 24.5728C24.043 24.6036 24.043 24.6499 24.0122 24.6808L22.1445 26.5485C22.1188 26.5742 22.1188 26.6154 22.1445 26.6462C22.6075 27.1093 23.3639 27.1093 23.8321 26.6462L25.9776 24.5007C26.2194 24.2589 26.6104 24.2589 26.8523 24.5007L27.0169 24.6654C27.0426 24.6911 27.0426 24.7323 27.0169 24.7631L25.2161 26.5639C25.1904 26.5896 25.1904 26.6308 25.2161 26.6617C25.6792 27.1247 26.4355 27.1247 26.9037 26.6617L28.9772 24.5882C29.219 24.3464 29.61 24.3464 29.8518 24.5882L30.2069 24.9432C30.3458 25.0821 30.3458 25.3136 30.2069 25.4526L30.1503 25.5091C30.0113 25.6481 29.7798 25.6481 29.6409 25.5091L29.183 25.0513C29.1573 25.0255 29.1161 25.0255 29.0852 25.0513L28.2929 25.8436C28.2672 25.8693 28.2672 25.9105 28.2929 25.9414L29.008 26.6565C29.502 27.1505 30.2995 27.1505 30.7883 26.6565L31.3542 26.0905L31.3491 26.0751Z" fill="#7DDACF"/>
<path id="Vector_7" d="M25.3763 6.63696C15.0038 6.63696 6.59668 15.0441 6.59668 25.4166C6.59668 35.7891 15.0038 44.1962 25.3763 44.1962C35.7488 44.1962 44.1559 35.7891 44.1559 25.4166C44.1559 15.0441 35.7488 6.63696 25.3763 6.63696ZM26.143 12.4355C29.158 12.6104 31.8952 13.8144 34.0149 15.6975L31.3035 18.409C29.8886 17.2102 28.1032 16.4333 26.143 16.2686V12.4355ZM24.6148 12.4355V16.2686C22.6546 16.4281 20.8692 17.2102 19.4543 18.409L16.7428 15.6975C18.8626 13.8144 21.5998 12.6104 24.6148 12.4355ZM15.6624 16.778L18.3738 19.4894C17.175 20.9044 16.3981 22.6897 16.2335 24.65H12.4004C12.5753 21.6349 13.7793 18.8978 15.6624 16.778ZM12.4004 26.1781H16.2335C16.393 28.1384 17.175 29.9237 18.3738 31.3386L15.6624 34.0501C13.7793 31.9303 12.5753 29.1931 12.4004 26.1781ZM24.6148 38.3925C21.5998 38.2176 18.8626 37.0136 16.7428 35.1305L19.4543 32.4191C20.8692 33.6179 22.6546 34.3948 24.6148 34.5594V38.3925ZM17.4837 25.4114C17.4837 21.0535 21.0184 17.5189 25.3763 17.5189C29.7342 17.5189 33.2689 21.0535 33.2689 25.4114C33.2689 29.7693 29.7342 33.304 25.3763 33.304C21.0184 33.304 17.4837 29.7693 17.4837 25.4114ZM26.143 38.3925V34.5594C28.1032 34.3999 29.8886 33.6179 31.3035 32.4191L34.0149 35.1305C31.8952 37.0136 29.158 38.2176 26.143 38.3925ZM35.0954 34.0501L32.384 31.3386C33.5828 29.9237 34.3597 28.1384 34.5243 26.1781H38.3574C38.1825 29.1931 36.9785 31.9303 35.0954 34.0501ZM34.5243 24.65C34.3648 22.6897 33.5828 20.9044 32.384 19.4894L35.0954 16.778C36.9785 18.8978 38.1825 21.6349 38.3574 24.65H34.5243Z" fill="#7DDACF"/>
</g>
</g>
</svg>
