<svg width="50" height="50" viewBox="0 0 50 50" fill="none" xmlns="http://www.w3.org/2000/svg">
<g id="Shield">
<path id="Vector" d="M24.9528 49.9153C18.6758 49.9153 12.4039 47.528 7.62409 42.7482C-1.93036 33.1937 -1.93036 17.6503 7.62409 8.09588C12.2547 3.46529 18.4082 0.918457 24.9528 0.918457C31.4974 0.918457 37.6509 3.46529 42.2815 8.09588C51.836 17.6503 51.836 33.1937 42.2815 42.7482C37.5069 47.5228 31.2298 49.9153 24.9528 49.9153ZM8.91037 41.4619C17.7548 50.3063 32.1457 50.3063 40.9901 41.4619C49.8345 32.6175 49.8345 18.2266 40.9901 9.38216C36.7042 5.09629 31.0086 2.73984 24.9477 2.73984C18.8867 2.73984 13.1911 5.10143 8.90522 9.38216C0.0607874 18.2266 0.0607874 32.6175 8.90522 41.4619H8.91037Z" fill="#9DADF2"/>
<g id="Group">
<path id="Vector_2" d="M24.6289 34.5879C24.7163 34.7989 24.9221 34.9223 25.1382 34.9223C25.2103 34.9223 25.2823 34.9069 25.3543 34.8811C27.0831 34.1557 28.6575 33.034 29.9026 31.6346C30.1033 31.4082 30.0827 31.0584 29.8563 30.8577C29.6299 30.657 29.28 30.6776 29.0794 30.904C27.9423 32.1851 26.5068 33.209 24.9273 33.8676C24.6494 33.9859 24.5157 34.3101 24.634 34.5879H24.6289Z" fill="#9DADF2"/>
<path id="Vector_3" d="M34.2905 16.9507L25.1528 13.2976C25.019 13.2462 24.875 13.2462 24.7412 13.2976L15.6035 16.9507C15.3926 17.033 15.2588 17.2336 15.2588 17.46V24.0046C15.2691 30.0449 19.0868 35.5039 24.7567 37.5825C24.8184 37.6031 24.8801 37.6134 24.947 37.6134C25.0139 37.6134 25.0757 37.6031 25.1374 37.5825C30.8073 35.4987 34.6249 30.0449 34.6352 24.0046V17.46C34.6352 17.2336 34.5015 17.033 34.2905 16.9507ZM33.5342 24.0046C33.5239 29.4995 30.0767 34.5057 24.9521 36.4763C19.8276 34.5057 16.3753 29.4995 16.365 24.0046V17.8356L24.9521 14.4038L33.5342 17.8356V24.0046Z" fill="#9DADF2"/>
<path id="Vector_4" d="M21.1346 17.8098C21.0009 17.7532 20.8516 17.7532 20.7127 17.8098L18.5364 18.6793C18.3254 18.7617 18.1917 18.9623 18.1917 19.1887V21.5091C18.1917 21.8127 18.4386 22.0596 18.7422 22.0596C19.0457 22.0596 19.2927 21.8127 19.2927 21.5091V19.5643L21.1192 18.8337C21.2581 18.7771 21.361 18.6742 21.4228 18.5353C21.4794 18.4015 21.4794 18.2523 21.4228 18.1134C21.3662 17.9745 21.2633 17.8715 21.1295 17.8098H21.1346Z" fill="#9DADF2"/>
<path id="Vector_5" d="M38.8703 11.5069C35.1555 7.787 30.211 5.74438 24.9527 5.74438C19.6944 5.74438 14.7552 7.79214 11.0352 11.5069C3.3639 19.1783 3.3639 31.6654 11.0352 39.3419C14.8735 43.1802 19.9105 45.0941 24.9527 45.0941C29.9949 45.0941 35.032 43.175 38.8703 39.3419C46.5416 31.6706 46.5416 19.1834 38.8703 11.5069ZM36.1485 24.0043C36.1639 30.9862 31.7031 37.0935 25.0505 39.2081C24.9888 39.2287 24.9219 39.2287 24.855 39.2081C18.2024 37.0935 13.7416 30.9862 13.757 24.0043V16.2815C13.757 16.1529 13.8342 16.0346 13.9577 15.9832L24.8344 11.6355C24.8704 11.6201 24.9116 11.615 24.9527 11.615C24.9939 11.615 25.0351 11.6201 25.0711 11.6355L35.9479 15.9883C36.0713 16.0346 36.1485 16.1529 36.1485 16.2867V24.0095V24.0043Z" fill="#9DADF2"/>
</g>
</g>
</svg>
