<svg width="50" height="50" viewBox="0 0 50 50" fill="none" xmlns="http://www.w3.org/2000/svg">
<g id="M">
<path id="Vector" d="M24.9541 49.4047C11.4482 49.4047 0.463379 38.4148 0.463379 24.914C0.463379 11.4133 11.4533 0.42334 24.9541 0.42334C38.4548 0.42334 49.4448 11.4133 49.4448 24.914C49.4448 38.4148 38.4548 49.4047 24.9541 49.4047ZM24.9541 2.05433C12.3486 2.05433 2.09437 12.3085 2.09437 24.914C2.09437 37.5195 12.3486 47.7737 24.9541 47.7737C37.5596 47.7737 47.8138 37.5195 47.8138 24.914C47.8138 12.3085 37.5596 2.05433 24.9541 2.05433Z" fill="#478BF9"/>
<g id="Group">
<path id="Vector_2" d="M40.9308 7.4418L33.3489 15.0237L34.8405 16.5153L42.4224 8.93344L40.9308 7.4418Z" fill="#478BF9"/>
<path id="Vector_3" d="M14.8346 33.5373L7.25269 41.1191L8.74431 42.6108L16.3262 35.0289L14.8346 33.5373Z" fill="#478BF9"/>
<path id="Vector_4" d="M35.0703 33.5445L33.5786 35.0361L41.1605 42.618L42.6521 41.1263L35.0703 33.5445Z" fill="#478BF9"/>
<path id="Vector_5" d="M8.74236 7.21345L7.25073 8.70508L14.829 16.2833L16.3206 14.7917L8.74236 7.21345Z" fill="#478BF9"/>
</g>
<g id="Group_2">
<path id="Vector_6" d="M30.9275 25.5727C31.4214 25.0788 31.4214 24.2813 30.9275 23.7925L29.8778 22.748C29.3839 22.2541 28.5864 22.2541 28.0976 22.748L27.5317 23.314L26.8783 22.6605C26.3843 22.1666 25.5868 22.1666 25.098 22.6605L24.5321 23.2317L23.8787 22.5731C23.3847 22.0792 22.5872 22.0792 22.0984 22.5731L18.6255 26.046C18.5998 26.0718 18.5998 26.1129 18.6255 26.1438C19.0886 26.6068 19.8449 26.6068 20.3131 26.1438L22.5512 23.9057C22.793 23.6639 23.1841 23.6639 23.4259 23.9057L23.5905 24.0703C23.6214 24.1012 23.6214 24.1475 23.5905 24.1784L21.7229 26.046C21.6971 26.0718 21.6971 26.1129 21.7229 26.1438C22.1859 26.6068 22.9423 26.6068 23.4105 26.1438L25.556 23.9983C25.7978 23.7565 26.1888 23.7565 26.4306 23.9983L26.5953 24.1629C26.621 24.1887 26.621 24.2298 26.5953 24.2607L24.7945 26.0615C24.7688 26.0872 24.7688 26.1284 24.7945 26.1592C25.2576 26.6223 26.0139 26.6223 26.4821 26.1592L28.5556 24.0857C28.7974 23.8439 29.1884 23.8439 29.4302 24.0857L29.7852 24.4408C29.9241 24.5797 29.9241 24.8112 29.7852 24.9501L29.7286 25.0067C29.5897 25.1456 29.3582 25.1456 29.2193 25.0067L28.7614 24.5488C28.7356 24.5231 28.6945 24.5231 28.6636 24.5488L27.8713 25.3412C27.8455 25.3669 27.8455 25.408 27.8713 25.4389L28.5864 26.1541C29.0804 26.648 29.8778 26.648 30.3666 26.1541L30.9326 25.5881L30.9275 25.5727Z" fill="#478BF9"/>
<path id="Vector_7" d="M24.9547 6.13428C14.5821 6.13428 6.17505 14.5414 6.17505 24.9139C6.17505 35.2864 14.5821 43.6935 24.9547 43.6935C35.3272 43.6935 43.7343 35.2864 43.7343 24.9139C43.7343 14.5414 35.3272 6.13428 24.9547 6.13428ZM25.7213 11.9328C28.7363 12.1078 31.4735 13.3117 33.5933 15.1948L30.8818 17.9063C29.4669 16.7075 27.6816 15.9306 25.7213 15.7659V11.9328ZM24.1932 11.9328V15.7659C22.2329 15.9254 20.4476 16.7075 19.0327 17.9063L16.3212 15.1948C18.441 13.3117 21.1781 12.1078 24.1932 11.9328ZM15.2407 16.2753L17.9522 18.9868C16.7534 20.4017 15.9765 22.187 15.8118 24.1473H11.9787C12.1536 21.1323 13.3576 18.3951 15.2407 16.2753ZM11.9787 25.6754H15.8118C15.9713 27.6357 16.7534 29.421 17.9522 30.8359L15.2407 33.5474C13.3576 31.4276 12.1536 28.6904 11.9787 25.6754ZM24.1932 37.8899C21.1781 37.7149 18.441 36.511 16.3212 34.6279L19.0327 31.9164C20.4476 33.1152 22.2329 33.8921 24.1932 34.0568V37.8899ZM17.0621 24.9088C17.0621 20.5508 20.5968 17.0162 24.9547 17.0162C29.3126 17.0162 32.8472 20.5508 32.8472 24.9088C32.8472 29.2667 29.3126 32.8013 24.9547 32.8013C20.5968 32.8013 17.0621 29.2667 17.0621 24.9088ZM25.7213 37.8899V34.0568C27.6816 33.8973 29.4669 33.1152 30.8818 31.9164L33.5933 34.6279C31.4735 36.511 28.7363 37.7149 25.7213 37.8899ZM34.6737 33.5474L31.9623 30.8359C33.1611 29.421 33.938 27.6357 34.1026 25.6754H37.9358C37.7608 28.6904 36.5569 31.4276 34.6737 33.5474ZM34.1026 24.1473C33.9431 22.187 33.1611 20.4017 31.9623 18.9868L34.6737 16.2753C36.5569 18.3951 37.7608 21.1323 37.9358 24.1473H34.1026Z" fill="#478BF9"/>
</g>
</g>
</svg>
